<svg width="1280" height="360" viewBox="0 0 1280 360" fill="none" xmlns="http://www.w3.org/2000/svg">
  <defs>
    <linearGradient id="bg" x1="0" y1="0" x2="1280" y2="360" gradientUnits="userSpaceOnUse">
      <stop stop-color="#111827"/>
      <stop offset="0.45" stop-color="#14213D"/>
      <stop offset="1" stop-color="#1E3A5F"/>
    </linearGradient>
    <linearGradient id="accent" x1="189" y1="45" x2="1154" y2="321" gradientUnits="userSpaceOnUse">
      <stop stop-color="#00E0B8"/>
      <stop offset="0.5" stop-color="#72E4FF"/>
      <stop offset="1" stop-color="#C084FC"/>
    </linearGradient>
    <filter id="glow" x="-30%" y="-30%" width="160%" height="160%">
      <feGaussianBlur stdDeviation="14" result="blur"/>
      <feColorMatrix in="blur" type="matrix" values="0 0 0 0 0.28 0 0 0 0 0.95 0 0 0 0 0.86 0 0 0 0.58 0"/>
      <feBlend in="SourceGraphic" in2="blur"/>
    </filter>
  </defs>
  <rect width="1280" height="360" rx="34" fill="url(#bg)"/>
  <circle cx="1080" cy="60" r="150" fill="#00E0B8" opacity="0.08"/>
  <circle cx="175" cy="312" r="190" fill="#C084FC" opacity="0.10"/>
  <path d="M-20 294C187 242 307 250 473 294C655 342 769 340 948 280C1072 238 1176 214 1300 246" stroke="url(#accent)" stroke-width="3" opacity="0.55"/>
  <path d="M-30 122C168 80 300 82 487 130C676 178 831 190 1012 148C1130 120 1218 111 1300 124" stroke="#72E4FF" stroke-width="1.5" opacity="0.25"/>
  <g opacity="0.55">
    <circle cx="168" cy="86" r="3" fill="#72E4FF"/>
    <circle cx="249" cy="150" r="3" fill="#C084FC"/>
    <circle cx="342" cy="98" r="3" fill="#00E0B8"/>
    <circle cx="1035" cy="224" r="3" fill="#72E4FF"/>
    <circle cx="1136" cy="164" r="3" fill="#00E0B8"/>
    <path d="M168 86L249 150L342 98" stroke="#72E4FF" opacity="0.45"/>
    <path d="M1035 224L1136 164" stroke="#72E4FF" opacity="0.45"/>
  </g>
  <g filter="url(#glow)">
    <rect x="79" y="72" width="108" height="108" rx="26" fill="#0B1220" stroke="url(#accent)" stroke-width="3"/>
    <path d="M107 127h51M107 102h51M107 152h36" stroke="#72E4FF" stroke-width="8" stroke-linecap="round"/>
    <circle cx="172" cy="102" r="7" fill="#00E0B8"/>
    <circle cx="158" cy="152" r="7" fill="#C084FC"/>
  </g>
  <text x="218" y="122" fill="white" font-family="Inter, Segoe UI, Arial, sans-serif" font-size="52" font-weight="800">Nethuli Gunathilaka</text>
  <text x="220" y="174" fill="#BFEFFF" font-family="Inter, Segoe UI, Arial, sans-serif" font-size="26" font-weight="600">BSc (Hons) IT • AI Specialization • SLIIT</text>
  <text x="220" y="225" fill="#F2F7FF" font-family="Inter, Segoe UI, Arial, sans-serif" font-size="23">Building reliable PHP and Java full‑stack systems with clean UI and practical workflows.</text>
  <g>
    <rect x="220" y="257" width="120" height="38" rx="19" fill="#00E0B8" opacity="0.18" stroke="#00E0B8"/>
    <text x="252" y="282" fill="#E8FFFB" font-family="Inter, Segoe UI, Arial, sans-serif" font-size="16" font-weight="700">PHP</text>
    <rect x="358" y="257" width="122" height="38" rx="19" fill="#72E4FF" opacity="0.18" stroke="#72E4FF"/>
    <text x="387" y="282" fill="#E8F9FF" font-family="Inter, Segoe UI, Arial, sans-serif" font-size="16" font-weight="700">Java</text>
    <rect x="498" y="257" width="158" height="38" rx="19" fill="#C084FC" opacity="0.18" stroke="#C084FC"/>
    <text x="530" y="282" fill="#FAF4FF" font-family="Inter, Segoe UI, Arial, sans-serif" font-size="16" font-weight="700">Spring Boot</text>
    <rect x="674" y="257" width="124" height="38" rx="19" fill="#00E0B8" opacity="0.18" stroke="#00E0B8"/>
    <text x="710" y="282" fill="#E8FFFB" font-family="Inter, Segoe UI, Arial, sans-serif" font-size="16" font-weight="700">React</text>
  </g>
</svg>